# This file uses centimeters as units for non-parametric coordinates.

mtllib Cone.mtl
g default
v 0.707107 0.000000 -0.707107
v 0.000000 0.000000 -1.000000
v -0.707107 0.000000 -0.707107
v -1.000000 0.000000 0.000000
v -0.707107 0.000000 0.707107
v 0.000000 0.000000 1.000000
v 0.707107 0.000000 0.707107
v 1.000000 0.000000 0.000000
v 0.000000 3.000000 0.000000
vt 0.676777 0.073223
vt 0.500000 0.000000
vt 0.323223 0.073223
vt 0.250000 0.250000
vt 0.323223 0.426777
vt 0.500000 0.500000
vt 0.676777 0.426777
vt 0.750000 0.250000
vt 0.250000 0.500000
vt 0.312500 0.500000
vt 0.375000 0.500000
vt 0.437500 0.500000
vt 0.500000 0.500000
vt 0.562500 0.500000
vt 0.625000 0.500000
vt 0.687500 0.500000
vt 0.750000 0.500000
vt 0.500000 1.000000
vn 0.000000 -1.000000 0.000000
vn 0.000000 -1.000000 0.000000
vn 0.000000 -1.000000 0.000000
vn 0.000000 -1.000000 0.000000
vn 0.000000 -1.000000 0.000000
vn 0.000000 -1.000000 0.000000
vn 0.000000 -1.000000 0.000000
vn 0.000000 -1.000000 0.000000
vn 0.670820 0.316228 -0.670820
vn 0.000000 0.316228 -0.948683
vn 0.000000 1.000000 0.000000
vn -0.670820 0.316228 -0.670820
vn -0.948683 0.316228 0.000000
vn -0.670820 0.316228 0.670820
vn 0.000000 0.316228 0.948683
vn 0.670820 0.316228 0.670820
vn 0.948683 0.316228 0.000000
s off
g ConeMesh
usemtl initialShadingGroup
f 1/1/1 8/8/2 7/7/3 6/6/4 5/5/5 4/4/6 3/3/7 2/2/8
s 1
f 1/9/9 2/10/10 9/18/11
f 2/10/10 3/11/12 9/18/11
f 3/11/12 4/12/13 9/18/11
f 4/12/13 5/13/14 9/18/11
f 5/13/14 6/14/15 9/18/11
f 6/14/15 7/15/16 9/18/11
f 7/15/16 8/16/17 9/18/11
f 8/16/17 1/17/9 9/18/11
