# This file uses centimeters as units for non-parametric coordinates.

mtllib Diamond.mtl
g default
v 0.000000 0.021559 -0.707107
v -0.707107 0.021559 -0.000000
v 0.000000 0.021559 0.707107
v 0.707107 0.021559 0.000000
v 0.000000 1.140757 0.000000
v 0.000000 -1.140757 0.000000
vt 0.250000 0.500000
vt 0.375000 0.500000
vt 0.500000 0.500000
vt 0.625000 0.500000
vt 0.750000 0.500000
vt 0.500000 1.000000
vt 0.000000 0.000000
vt 1.000000 0.000000
vt 0.500000 1.000000
vt 0.000000 0.000000
vt 1.000000 0.000000
vt 0.500000 1.000000
vt 0.000000 0.000000
vt 1.000000 0.000000
vt 0.500000 1.000000
vt 0.000000 0.000000
vt 1.000000 0.000000
vt 0.500000 1.000000
vn -0.707105 -0.002020 -0.707105
vn -0.707105 -0.002020 -0.707105
vn -0.645609 0.407894 -0.645609
vn -0.707105 -0.002020 0.707105
vn -0.707105 -0.002020 0.707105
vn -0.645609 0.407894 0.645609
vn 0.707105 -0.002020 0.707105
vn 0.707105 -0.002020 0.707105
vn 0.645609 0.407894 0.645609
vn 0.707105 -0.002020 -0.707105
vn 0.707105 -0.002020 -0.707105
vn 0.645609 0.407894 -0.645609
vn -0.649556 -0.395164 -0.649556
vn -0.649556 -0.395164 0.649556
vn 0.649556 -0.395164 0.649556
vn 0.649556 -0.395164 -0.649556
s 1
g DiamondMesh
usemtl initialShadingGroup
f 1/1/1 2/2/2 5/6/3
s 2
f 2/2/4 3/3/5 5/6/6
s 3
f 3/3/7 4/4/8 5/6/9
s 4
f 4/4/10 1/5/11 5/6/12
s 1
f 2/7/2 1/8/1 6/9/13
s 2
f 3/10/5 2/11/4 6/12/14
s 3
f 4/13/8 3/14/7 6/15/15
s 4
f 1/16/11 4/17/10 6/18/16
