# This file uses centimeters as units for non-parametric coordinates.

mtllib LevelRedBase.mtl
g default
v -4.175921 0.114298 4.175921
v -4.175921 8.494659 4.175921
v 4.204441 8.494659 4.175921
v 4.204441 0.114298 4.175921
v -4.175921 0.114298 -4.204441
v 4.204441 0.114298 -4.204441
v -4.175921 0.555690 -3.289032
v -4.175921 0.555690 3.289032
v -4.175921 2.606522 3.289032
v -4.175921 2.606522 -3.289032
v -4.175921 8.494659 -4.204441
v 4.204441 8.494659 -4.204441
v -15.946550 0.555690 -3.289032
v -15.946550 0.555690 3.289032
v -15.946550 2.606522 3.289032
v -15.946550 2.606522 -3.289032
v -4.175921 0.114298 -2.805557
v 4.204441 0.114298 -2.805557
v -4.175921 0.114298 -3.380223
v 4.204441 0.114298 -3.380223
v -4.175921 -2.691840 -3.380223
v 4.204441 -2.691840 -3.380223
v -4.175921 -2.691840 -2.805557
v 4.204441 -2.691840 -2.805557
vt 0.375000 0.000000
vt 0.375000 0.250000
vt 0.625000 0.250000
vt 0.625000 0.000000
vt 0.375000 0.750000
vt 0.375000 1.000000
vt 0.625000 1.000000
vt 0.625000 0.750000
vt 0.125000 0.000000
vt 0.215615 0.008946
vt 0.285236 0.008946
vt 0.285236 0.078568
vt 0.215615 0.078568
vt 0.125000 0.250000
vt 0.875000 0.250000
vt 0.875000 0.000000
vt 0.375000 0.500000
vt 0.625000 0.500000
vt 0.000000 0.000000
vt 1.000000 0.000000
vt 1.000000 1.000000
vt 0.000000 1.000000
vt 0.000000 0.000000
vt 1.000000 0.000000
vt 1.000000 1.000000
vt 0.000000 1.000000
vt 0.000000 0.000000
vt 1.000000 0.000000
vt 1.000000 1.000000
vt 0.000000 1.000000
vt 0.000000 0.000000
vt 1.000000 0.000000
vt 1.000000 1.000000
vt 0.000000 1.000000
vt 0.375000 0.791731
vt 0.166731 0.000000
vt 0.625000 0.773056
vt 0.851944 0.000000
vt 0.375000 0.774588
vt 0.149588 0.000000
vt 0.625000 0.764393
vt 0.860607 0.000000
vt 0.625000 0.764393
vt 0.375000 0.774588
vt 0.375000 0.791731
vt 0.625000 0.773056
vn 0.000000 0.000000 -1.000000
vn 0.000000 0.000000 -1.000000
vn 0.000000 0.000000 -1.000000
vn 0.000000 0.000000 -1.000000
vn 0.000000 1.000000 0.000000
vn 0.000000 1.000000 0.000000
vn 0.000000 1.000000 0.000000
vn 0.000000 1.000000 0.000000
vn 1.000000 0.000000 0.000000
vn 1.000000 0.000000 0.000000
vn 1.000000 0.000001 0.000000
vn 1.000000 0.000000 0.000000
vn 1.000000 0.000000 0.000000
vn -1.000000 0.000000 0.000000
vn -1.000000 0.000000 0.000000
vn -1.000000 -0.000000 0.000000
vn 0.000000 0.000000 1.000000
vn 0.000000 0.000000 1.000000
vn 0.000000 0.000000 1.000000
vn 0.000000 0.000000 1.000000
vn 1.000000 0.000000 0.000000
vn 1.000000 0.000000 0.000000
vn 1.000000 0.000000 0.000000
vn 1.000000 0.000000 0.000000
vn 0.000000 1.000000 0.000000
vn 0.000000 1.000000 0.000000
vn 0.000000 1.000000 0.000000
vn 0.000000 1.000000 0.000000
vn 0.000000 0.000000 -1.000000
vn 0.000000 0.000000 -1.000000
vn 0.000000 0.000000 -1.000000
vn 0.000000 0.000000 -1.000000
vn 0.000000 -1.000000 0.000000
vn 0.000000 -1.000000 0.000000
vn 0.000000 -1.000000 0.000000
vn 0.000000 -1.000000 0.000000
vn 0.000000 0.000000 1.000000
vn 0.000000 0.000000 1.000000
vn 0.000000 0.000000 1.000000
vn 0.000000 0.000000 1.000000
vn 1.000000 0.000000 0.000000
vn 0.000000 1.000000 0.000000
vn 0.000000 1.000000 0.000000
vn 0.000000 1.000000 0.000000
vn 0.000000 1.000000 0.000000
vn 0.000000 1.000000 0.000000
vn 0.000000 1.000000 0.000000
vn 0.000000 1.000000 0.000000
vn 0.000000 1.000000 0.000000
vn 0.000000 0.000000 1.000000
vn 0.000000 0.000000 1.000000
vn 0.000000 0.000000 1.000000
vn 0.000000 0.000000 1.000000
vn 1.000000 0.000000 0.000000
vn 1.000000 0.000000 0.000000
vn 1.000000 0.000000 0.000000
vn 1.000000 0.000000 0.000000
vn 0.000000 0.000000 -1.000000
vn 0.000000 0.000000 -1.000000
vn 0.000000 0.000000 -1.000000
vn 0.000000 0.000000 -1.000000
vn -1.000000 0.000000 0.000000
vn -1.000000 0.000000 0.000000
vn -1.000000 0.000000 0.000000
vn -1.000000 0.000000 0.000000
vn -1.000000 0.000000 0.000000
vn -1.000000 0.000000 0.000000
vn -1.000000 0.000000 0.000000
s off
g pCube3
usemtl initialShadingGroup
f 1/1/1 2/2/2 3/3/3 4/4/4
f 18/37/5 17/35/6 1/6/7 4/7/8
s 1
f 5/9/9 7/10/10 19/40/11
f 11/14/12 10/13/13 7/10/10 5/9/9
s 2
f 18/38/14 12/15/15 20/42/16
s off
f 11/17/17 5/5/18 6/8/19 12/18/20
s 1
f 1/1/21 8/11/22 9/12/23 2/2/24
f 9/12/23 10/13/13 11/14/12 2/2/24
s off
f 8/19/25 7/20/26 13/21/27 14/22/28
f 9/23/29 8/24/30 14/25/31 15/26/32
f 10/27/33 9/28/34 15/29/35 16/30/36
f 7/31/37 10/32/38 16/33/39 13/34/40
s 1
f 17/36/41 7/10/10 8/11/22 1/1/21
s off
f 5/5/42 19/39/43 20/41/44 6/8/45
s 1
f 19/40/11 7/10/10 17/36/41
s off
f 22/43/46 21/44/47 23/45/48 24/46/49
f 20/41/50 19/39/51 21/44/52 22/43/53
f 19/39/54 17/35/55 23/45/56 21/44/57
f 17/35/58 18/37/59 24/46/60 23/45/61
f 18/37/62 20/41/63 22/43/64 24/46/65
s 2
f 20/42/16 12/15/15 6/16/66
f 4/4/67 3/3/68 12/15/15 18/38/14
